# xmcd
#
# Track frame offsets:
# 150
# 13304
# 27480
# 37080
# 47507
# 60361
# 72242
# 80453
# 92603
# 103898
# 122423
# 133973
# 145398
# 159798
# 174072
# 186072
# 200772
# 208210
# 225236
# 233194
#
# Disc length: 3253 seconds
#
#
# Revision: 0
# Processed by: cddbd v1.5.2PL0 Copyright (c) Steve Scherf et al.
# Submitted via: FreeRIP 2.944 
#
DISCID=110cb314
DTITLE=Zpivani_s_veverkou-Country
DYEAR=2006
DGENRE=Country
TTITLE0=Kampak trampe kamarade
TTITLE1=Niagara
TTITLE2=Buraky
TTITLE3=Ja prijdu za tebou
TTITLE4=Jackova pisen
TTITLE5=Kryte vozy
TTITLE6=Mavej
TTITLE7=Severni vitr
TTITLE8=Mexicka svatba
TTITLE9=Ascalona
TTITLE10=Parta z rance Y
TTITLE11=Reka huci
TTITLE12=Sedum zlutejch kaminku
TTITLE13=V dali za horama
TTITLE14=Zlatokop Tom
TTITLE15=Rikatado
TTITLE16=Rovnou
TTITLE17=Taboraku plapolej
TTITLE18=Rodne udoli
TTITLE19=Zradny banjo
EXTD=
EXTT0=
EXTT1=
EXTT2=
EXTT3=
EXTT4=
EXTT5=
EXTT6=
EXTT7=
EXTT8=
EXTT9=
EXTT10=
EXTT11=
EXTT12=
EXTT13=
EXTT14=
EXTT15=
EXTT16=
EXTT17=
EXTT18=
EXTT19=
PLAYORDER=
